<svg width="303" height="303" viewBox="0 0 303 303" fill="none" xmlns="http://www.w3.org/2000/svg">
<circle cx="151.5" cy="151.5" r="151.5" fill="#044737"/>
<path d="M167.283 174.507C156.302 176.779 146.679 177.915 138.415 177.915H132.472C124.774 177.915 118.604 175.586 113.962 170.928C109.321 166.27 107 160.078 107 152.352V118.268C107 109.746 109.377 103.1 114.132 98.3282C119 93.4427 125.679 91 134.17 91H197V186.437C197 194.162 194.679 200.354 190.038 205.013C185.396 209.671 179.226 212 171.528 212C153.755 212 133.943 210.864 112.094 208.592V186.437C133.717 188.141 150.132 188.993 161.34 188.993C163.038 188.993 164.453 188.425 165.585 187.289C166.717 186.153 167.283 184.732 167.283 183.028V174.507ZM146.906 154.908C154.038 154.908 160.83 154.34 167.283 153.204V114.007H143.509C138.981 114.007 136.717 116.279 136.717 120.824V148.944C136.717 150.648 137.283 152.068 138.415 153.204C139.547 154.34 140.962 154.908 142.66 154.908H146.906Z" fill="#D0FEC8"/>
</svg>
